<svg width="59" height="38" viewBox="0 0 59 38" fill="none" xmlns="http://www.w3.org/2000/svg">
<path d="M56 21.5C57.3807 21.5 58.5 20.3807 58.5 19C58.5 17.6193 57.3807 16.5 56 16.5L56 21.5ZM1.23223 17.2322C0.255924 18.2085 0.255924 19.7915 1.23223 20.7678L17.1421 36.6777C18.1185 37.654 19.7014 37.654 20.6777 36.6777C21.654 35.7014 21.654 34.1184 20.6777 33.1421L6.53554 19L20.6777 4.85786C21.654 3.88155 21.654 2.29864 20.6777 1.32233C19.7014 0.34602 18.1185 0.34602 17.1421 1.32233L1.23223 17.2322ZM56 16.5L3 16.5L3 21.5L56 21.5L56 16.5Z" fill="url(#paint0_linear_15_78)"/>
<defs>
<linearGradient id="paint0_linear_15_78" x1="56" y1="19" x2="14.6015" y2="17.5579" gradientUnits="userSpaceOnUse">
<stop offset="0.182292" stop-color="#920DFB" stop-opacity="0.76"/>
<stop offset="0.458333" stop-color="#C946F1" stop-opacity="0.876129"/>
<stop offset="0.755208" stop-color="#E455CD"/>
</linearGradient>
</defs>
</svg>
