<svg width="18" height="22" viewBox="0 0 18 22" fill="none" xmlns="http://www.w3.org/2000/svg">
<path d="M0.157852 0.330998H10.4499C12.4339 0.330998 13.9735 0.826999 15.0689 1.819C16.1849 2.811 16.7429 4.25767 16.7429 6.159C16.7429 7.17167 16.4949 8.09133 15.9989 8.918C15.5235 9.724 14.8829 10.344 14.0769 10.778C16.3295 11.522 17.4559 13.1857 17.4559 15.769C17.4559 17.0503 17.1665 18.1663 16.5879 19.117C16.0092 20.047 15.2239 20.76 14.2319 21.256C13.2605 21.752 12.1755 22 10.9769 22H0.157852V0.330998ZM9.82985 9.352C10.7185 9.352 11.4315 9.11433 11.9689 8.639C12.5062 8.143 12.7749 7.399 12.7749 6.407C12.7749 5.27033 12.5062 4.49533 11.9689 4.082C11.4522 3.648 10.6772 3.431 9.64385 3.431H4.06385V9.352H9.82985ZM10.0779 18.9C11.1732 18.9 12.0102 18.6727 12.5889 18.218C13.1882 17.7633 13.4879 16.9573 13.4879 15.8C13.4879 14.6427 13.1779 13.8057 12.5579 13.289C11.9379 12.7723 11.0389 12.514 9.86085 12.514H4.06385V18.9H10.0779Z" fill="white"/>
</svg>
