<svg width="20" height="24" viewBox="0 0 20 24" fill="none" xmlns="http://www.w3.org/2000/svg">
<path d="M11.9204 23.465C9.64709 23.465 7.63209 23.0103 5.87543 22.101C4.11876 21.171 2.75476 19.8587 1.78343 18.164C0.812093 16.4487 0.326426 14.4543 0.326426 12.181C0.326426 9.90767 0.812093 7.92367 1.78343 6.229C2.75476 4.51367 4.11876 3.191 5.87543 2.261C7.63209 1.331 9.64709 0.865999 11.9204 0.865999C14.9171 0.865999 17.4178 1.579 19.4224 3.005V6.756C17.6244 5.22667 15.2374 4.462 12.2614 4.462C10.6701 4.462 9.27509 4.78233 8.07643 5.423C6.87776 6.043 5.94776 6.93167 5.28643 8.089C4.62509 9.24633 4.29443 10.6103 4.29443 12.181C4.29443 13.7517 4.62509 15.1157 5.28643 16.273C5.96843 17.4303 6.90876 18.3293 8.10743 18.97C9.30609 19.59 10.6908 19.9 12.2614 19.9C13.7908 19.9 15.1548 19.714 16.3534 19.342C17.5521 18.9493 18.6578 18.3293 19.6704 17.482V21.233C17.7691 22.721 15.1858 23.465 11.9204 23.465Z" fill="white"/>
</svg>
