<svg width="20" height="22" viewBox="0 0 20 22" fill="none" xmlns="http://www.w3.org/2000/svg">
<path d="M0.916152 0.330998H8.17015C10.5262 0.330998 12.5722 0.764999 14.3082 1.633C16.0442 2.501 17.3772 3.741 18.3072 5.353C19.2372 6.965 19.7022 8.86633 19.7022 11.057C19.7022 14.653 18.6585 17.381 16.5712 19.241C14.4838 21.0803 11.5698 22 7.82915 22H0.916152V0.330998ZM7.89115 18.745C10.4125 18.745 12.3448 18.0733 13.6882 16.73C15.0522 15.366 15.7342 13.475 15.7342 11.057C15.7342 9.58967 15.4345 8.298 14.8352 7.182C14.2358 6.04533 13.3782 5.167 12.2622 4.547C11.1462 3.90633 9.82349 3.586 8.29415 3.586H4.85315V18.745H7.89115Z" fill="white"/>
</svg>
